<?xml version="1.0" standalone="no"?>
<!DOCTYPE svg PUBLIC "-//W3C//DTD SVG 20010904//EN"
 "http://www.w3.org/TR/2001/REC-SVG-20010904/DTD/svg10.dtd">
<svg version="1.0" xmlns="http://www.w3.org/2000/svg"
 width="500.000000pt" height="500.000000pt" viewBox="0 0 500.000000 500.000000"
 preserveAspectRatio="xMidYMid meet">

<g transform="translate(0.000000,500.000000) scale(0.100000,-0.100000)"
fill="#000000" stroke="none">
<path d="M1770 2665 c-26 -32 13 -81 48 -59 34 22 22 74 -18 74 -10 0 -23 -7
-30 -15z"/>
<path d="M3460 2665 c-26 -32 13 -81 48 -59 34 22 22 74 -18 74 -10 0 -23 -7
-30 -15z"/>
<path d="M736 2523 c-10 -82 -20 -163 -23 -180 l-5 -33 81 0 c121 0 176 30
188 103 4 29 1 40 -20 61 l-25 24 24 21 c47 40 44 110 -6 136 -19 10 -57 15
-113 15 l-84 0 -17 -147z m168 81 c20 -19 20 -34 0 -62 -11 -16 -25 -22 -55
-22 -42 0 -45 6 -33 69 6 27 11 31 40 31 18 0 40 -7 48 -16z m-10 -150 c20
-19 20 -34 0 -62 -12 -17 -25 -22 -61 -22 l-46 0 7 38 c3 20 6 43 6 50 0 18
75 15 94 -4z"/>
<path d="M2685 2638 c-11 -66 -35 -273 -35 -300 l0 -28 105 0 105 0 0 30 0 30
-66 0 -65 0 3 43 3 42 55 5 c51 5 55 7 58 33 3 27 2 27 -52 27 l-55 0 5 38 c9
63 8 62 84 62 68 0 70 1 70 25 l0 25 -105 0 -104 0 -6 -32z"/>
<path d="M3225 2638 c-11 -67 -35 -273 -35 -300 l0 -29 98 3 97 3 3 28 c3 27
3 27 -61 27 l-63 0 17 138 c10 75 18 143 19 150 0 7 -13 12 -35 12 -31 0 -35
-3 -40 -32z"/>
<path d="M1603 2603 c-6 -28 -14 -39 -31 -41 -25 -4 -31 -42 -7 -42 14 0 15
-13 9 -90 -8 -104 -1 -120 55 -120 48 0 65 12 56 39 -4 14 -13 20 -28 18 -24
-2 -24 -4 -12 96 6 54 8 57 35 57 19 0 29 6 33 19 6 25 0 31 -30 31 -20 0 -23
5 -23 35 0 30 -3 35 -24 35 -20 0 -26 -7 -33 -37z"/>
<path d="M1079 2547 c-44 -30 -74 -100 -65 -152 11 -55 45 -85 100 -85 98 0
167 120 121 210 -28 55 -97 67 -156 27z m91 -42 c17 -21 7 -100 -15 -125 -39
-43 -81 -14 -72 50 10 75 55 113 87 75z"/>
<path d="M1297 2542 c-3 -16 -9 -63 -13 -105 -5 -63 -4 -81 10 -102 21 -31 72
-34 109 -5 25 20 25 20 30 0 6 -22 57 -29 57 -7 0 6 7 59 15 117 19 139 20
130 -19 130 l-34 0 -7 -67 c-8 -76 -25 -117 -55 -133 -36 -19 -43 -3 -36 79 4
42 10 86 13 99 5 20 1 22 -30 22 -30 0 -35 -4 -40 -28z"/>
<path d="M1760 2562 c0 -4 -7 -62 -15 -127 -8 -66 -15 -121 -15 -122 0 -2 15
-3 34 -3 l34 0 11 98 c7 53 15 112 18 130 5 31 4 32 -31 32 -20 0 -36 -4 -36
-8z"/>
<path d="M1960 2559 c-32 -13 -68 -47 -86 -82 -20 -38 -20 -111 0 -142 19 -30
69 -34 104 -9 l22 15 -6 -55 -7 -56 35 0 34 0 20 165 c16 137 17 165 6 170
-22 8 -95 5 -122 -6z m60 -72 c0 -41 -39 -121 -62 -125 -9 -2 -22 7 -28 19
-24 44 25 139 72 139 14 0 18 -8 18 -33z"/>
<path d="M2146 2555 c-3 -9 -9 -58 -12 -110 -6 -83 -5 -98 11 -115 23 -26 75
-26 108 0 25 20 25 20 30 0 3 -13 14 -20 30 -20 23 0 24 3 36 108 7 59 15 117
18 130 5 20 1 22 -30 22 -39 0 -34 12 -53 -119 -6 -42 -46 -95 -67 -88 -9 3
-11 32 -9 106 l3 101 -30 0 c-17 0 -31 -6 -35 -15z"/>
<path d="M2462 2550 c-36 -22 -71 -88 -72 -133 0 -35 24 -83 49 -97 37 -19
107 -12 138 14 22 20 25 27 16 37 -10 10 -18 10 -38 1 -51 -24 -95 -10 -95 30
0 12 8 18 24 18 31 0 87 19 109 38 17 15 23 58 9 78 -24 37 -91 44 -140 14z
m88 -44 c0 -18 -18 -32 -52 -40 -32 -7 -37 7 -11 36 19 21 63 24 63 4z"/>
<path d="M2935 2558 c-2 -7 -10 -66 -18 -130 l-14 -118 33 0 c35 0 35 0 49
104 8 61 57 119 80 95 11 -11 12 -27 5 -79 -17 -113 -15 -120 24 -120 l34 0 8
93 c9 108 7 126 -13 150 -23 24 -67 21 -102 -8 l-30 -26 -3 23 c-3 26 -45 38
-53 16z"/>
<path d="M3450 2562 c0 -4 -7 -62 -15 -127 -8 -66 -15 -121 -15 -122 0 -2 15
-3 34 -3 l34 0 11 98 c7 53 15 112 18 130 5 31 4 32 -31 32 -20 0 -36 -4 -36
-8z"/>
<path d="M3608 2554 c-34 -18 -48 -43 -48 -88 0 -46 40 -80 87 -73 28 5 33 3
33 -14 0 -16 -7 -19 -45 -19 -103 0 -155 -76 -82 -120 82 -50 212 9 193 88
-17 67 -17 84 -2 123 9 22 14 44 11 49 -3 5 4 11 15 15 11 3 20 14 20 24 0 15
-11 19 -61 25 -82 8 -90 8 -121 -10z m66 -30 c21 -8 21 -58 0 -78 -19 -19 -26
-20 -42 -4 -17 17 -15 48 5 70 18 21 16 20 37 12z m16 -213 c0 -20 -33 -41
-65 -41 -35 0 -51 20 -32 39 13 13 97 15 97 2z"/>
<path d="M3830 2563 c0 -5 -7 -55 -15 -113 -20 -146 -21 -140 19 -140 l34 0 7
68 c10 97 47 155 84 132 13 -8 10 -92 -5 -172 -5 -26 -3 -28 29 -28 40 0 41 4
53 141 6 70 5 78 -15 98 -26 26 -71 27 -104 1 -25 -20 -25 -20 -30 0 -3 14
-14 20 -31 20 -14 0 -26 -3 -26 -7z"/>
<path d="M4142 2550 c-36 -22 -71 -88 -72 -133 0 -35 24 -83 49 -97 37 -19
107 -12 138 14 22 20 25 27 16 37 -10 10 -18 10 -38 1 -51 -24 -95 -10 -95 30
0 12 8 18 24 18 31 0 87 19 109 38 17 15 23 58 9 78 -24 37 -91 44 -140 14z
m88 -44 c0 -18 -18 -32 -52 -40 -32 -7 -37 7 -11 36 19 21 63 24 63 4z"/>
</g>
</svg>
